<svg id="Group_68" data-name="Group 68" xmlns="http://www.w3.org/2000/svg" xmlns:xlink="http://www.w3.org/1999/xlink" width="30" height="30" viewBox="0 0 21.623 21.623">
                                            <defs>
                                                <clipPath id="clip-path">
                                                <rect id="Rectangle_42" data-name="Rectangle 42" width="21.623" height="21.623" fill="none"></rect>
                                                </clipPath>
                                            </defs>
                                            <g id="Group_67" data-name="Group 67" clip-path="url(#clip-path)">
                                                <path id="Path_25" data-name="Path 25" d="M21.623,10.812A10.812,10.812,0,1,1,10.812,0,10.812,10.812,0,0,1,21.623,10.812" transform="translate(0 0)" fill="#3dd100"></path>
                                                <path id="Path_26" data-name="Path 26" d="M33.375,29.43l2.447-2.447a1.559,1.559,0,0,0-.893-.891l-2.446,2.446a2.067,2.067,0,0,1-2.923,0l-2.445-2.446a1.558,1.558,0,0,0-.892.889l2.447,2.447a2.067,2.067,0,0,1,0,2.923L26.222,34.8a1.558,1.558,0,0,0,.89.893l2.449-2.45a2.067,2.067,0,0,1,2.923,0l2.449,2.449a1.56,1.56,0,0,0,.889-.892l-2.448-2.448a2.066,2.066,0,0,1,0-2.923" transform="translate(-20.211 -20.11)" fill="#fff"></path>
                                            </g>
                                        </svg>