<svg xmlns="http://www.w3.org/2000/svg" xmlns:xlink="http://www.w3.org/1999/xlink" width="149.628" height="31.055" viewBox="0 0 149.628 31.055">
            <defs>
              <clipPath id="clip-path">
                <rect id="Rectangle_21" data-name="Rectangle 21" width="149.628" height="31.055" fill="none"/>
              </clipPath>
            </defs>
            <g id="Group_25" data-name="Group 25" transform="translate(0 0)">
              <g id="Group_24" data-name="Group 24" transform="translate(0 0)" clip-path="url(#clip-path)">
                <path id="Path_13" data-name="Path 13" d="M0,19.391H17.065L9.809,12.14a3.926,3.926,0,0,1,5.554,0l3.806,3.806a1.542,1.542,0,0,1,.449,1.075v5.011a1.259,1.259,0,0,1-.449.945,1.586,1.586,0,0,1-1.117.444H0ZM19.618.807v4.03H2.511l7.3,7.3a3.935,3.935,0,0,1-5.554,0L.449,8.329A1.565,1.565,0,0,1,0,7.254V2.2a1.266,1.266,0,0,1,.449-.94A1.589,1.589,0,0,1,1.571.807Z" transform="translate(0 3.404)" fill="#fff"/>
                <path id="Path_14" data-name="Path 14" d="M10.128,23.422a2.471,2.471,0,0,1-1.749-.715L4.887,19.215a2.486,2.486,0,0,1-.715-1.8V6.806a2.474,2.474,0,0,1,.715-1.791L8.38,1.523A2.471,2.471,0,0,1,10.128.808h9.584a2.471,2.471,0,0,1,1.749.715l3.492,3.492a2.474,2.474,0,0,1,.715,1.791V17.419a2.486,2.486,0,0,1-.715,1.8l-3.492,3.492a2.471,2.471,0,0,1-1.749.715Zm10.435-4.03a1,1,0,0,0,1.028-.987V5.825a1,1,0,0,0-1.028-.987H9.277a1.006,1.006,0,0,0-1.028.987V18.405a1.006,1.006,0,0,0,1.028.987Z" transform="translate(17.607 3.408)" fill="#fff"/>
                <path id="Path_15" data-name="Path 15" d="M14.661,23.422a2.493,2.493,0,0,1-1.749-.715L9.42,19.215a2.486,2.486,0,0,1-.715-1.8V.808h4.077v17.6a1,1,0,0,0,1.028.987H27.054v4.03Z" transform="translate(36.737 3.408)" fill="#fff"/>
                <path id="Path_16" data-name="Path 16" d="M17.217,23.422V6.806a2.465,2.465,0,0,1,.715-1.791l3.492-3.492A2.471,2.471,0,0,1,23.173.808H34.011v4.03H22.322a1,1,0,0,0-1.028.981v17.6Z" transform="translate(72.66 3.408)" fill="#fff"/>
                <path id="Path_17" data-name="Path 17" d="M33.671,5.015,30.178,1.522A2.449,2.449,0,0,0,28.435.807H17.592v4.03h11.7a1,1,0,0,1,1.023.987v3.4c-3.252,0-7.12.005-10.341,0a8.161,8.161,0,0,0-1.911.219A6.621,6.621,0,0,0,13.332,13a7.923,7.923,0,0,0-.647,4.322,6.639,6.639,0,0,0,5.032,5.841,14.268,14.268,0,0,0,3.769.245,8.495,8.495,0,0,0,3.988-1.018c1.493-.82,4.839-2.72,4.839-2.72v3.753h4.077V6.81a2.449,2.449,0,0,0-.72-1.8M30.058,15.57q-3.1,1.723-6.2,3.466a3.245,3.245,0,0,1-1.623.418c-1.477-.01-2.944,0-4.411-.005a.985.985,0,0,1-.981-.987V14.093a.99.99,0,0,1,.981-.981H30.314s-.005,1.514,0,2.031a.429.429,0,0,1-.256.428" transform="translate(53.32 3.404)" fill="#fff"/>
                <path id="Path_18" data-name="Path 18" d="M45.854,10.8l7.914-7.919A5.008,5.008,0,0,0,50.881,0L42.968,7.909a6.681,6.681,0,0,1-9.454,0L25.6,0a5.029,5.029,0,0,0-2.882,2.876l7.914,7.914a6.686,6.686,0,0,1,0,9.454l-7.919,7.919a5.055,5.055,0,0,0,2.882,2.892l7.924-7.924a6.686,6.686,0,0,1,9.454,0L50.9,31.055a5.052,5.052,0,0,0,2.876-2.887l-7.919-7.919a6.686,6.686,0,0,1,0-9.454" transform="translate(95.854 -0.001)" fill="#fff"/>
              </g>
            </g>
          </svg>